<?xml version="1.0" encoding="UTF-8"?>
<!DOCTYPE svg PUBLIC "-//W3C//DTD SVG 1.1//EN" "http://www.w3.org/Graphics/SVG/1.1/DTD/svg11.dtd">
<!-- Creator: CorelDRAW 2018 (64 Bit) -->
<svg xmlns="http://www.w3.org/2000/svg" xml:space="preserve" width="68.7871mm" height="18.9469mm" version="1.1" style="shape-rendering:geometricPrecision; text-rendering:geometricPrecision; image-rendering:optimizeQuality; fill-rule:evenodd; clip-rule:evenodd"
viewBox="0 0 2941.56 810.23"
 xmlns:xlink="http://www.w3.org/1999/xlink">
 <defs>
  <style type="text/css">
   <![CDATA[
    .fil0 {fill:#3FA14C}
    .fil1 {fill:#CF3034}
    .fil2 {fill:white;fill-rule:nonzero}
   ]]>
  </style>
 </defs>
 <g id="Layer_x0020_1">
  <metadata id="CorelCorpID_0Corel-Layer"/>
  <g id="_1892046624304">
   <path class="fil0" d="M570.19 553.46c0,9.13 -7.6,16.73 -16.73,16.73l-132.28 0c-9.13,0 -16.73,-7.6 -16.73,-16.73l0 -132.27c0,-9.12 7.6,-16.72 16.72,-16.72l132.29 0c9.12,0 16.72,7.6 16.72,16.73l0 132.27z"/>
   <path class="fil0" d="M372.52 158.14c0,9.12 -7.6,16.72 -16.72,16.72l-132.29 0c-9.11,0 -16.72,-7.6 -16.72,-16.72l0 -133.81c0,-9.13 7.61,-16.72 16.72,-16.72l132.29 0c9.13,0 16.72,7.6 16.72,16.72l0 133.81z"/>
   <path class="fil0" d="M570.19 158.14c0,9.12 -7.6,16.72 -16.73,16.72l-132.28 0c-9.13,0 -16.73,-7.6 -16.73,-16.72l0 -133.81c0,-9.13 7.6,-16.72 16.72,-16.72l132.29 0c9.12,0 16.72,7.6 16.72,16.72l0 133.81z"/>
   <path class="fil0" d="M174.85 355.81c0,9.11 -7.6,16.72 -16.73,16.72l-132.27 0c-9.13,0 -16.73,-7.6 -16.73,-16.72l0 -133.81c0,-9.13 7.6,-16.73 16.72,-16.73l132.28 0c9.13,0 16.72,7.6 16.72,16.73l0 133.81z"/>
   <path class="fil0" d="M372.52 355.81c0,9.11 -7.6,16.72 -16.72,16.72l-132.29 0c-9.11,0 -16.72,-7.6 -16.72,-16.72l0 -133.81c0,-9.13 7.61,-16.73 16.72,-16.73l132.29 0c9.13,0 16.72,7.6 16.72,16.73l0 133.81z"/>
   <path class="fil0" d="M174.85 553.46c0,9.13 -7.6,16.73 -16.73,16.73l-132.27 0c-9.13,0 -16.73,-7.6 -16.73,-16.73l0 -132.27c0,-9.12 7.6,-16.72 16.72,-16.72l132.28 0c9.13,0 16.72,7.6 16.72,16.73l0 132.27z"/>
   <path class="fil0" d="M372.52 553.46c0,9.13 -7.6,16.73 -16.72,16.73l-132.29 0c-9.11,0 -16.72,-7.6 -16.72,-16.73l0 -132.27c0,-9.12 7.61,-16.72 16.72,-16.72l132.29 0c9.13,0 16.72,7.6 16.72,16.73l0 132.27z"/>
   <path class="fil0" d="M174.85 751.13c0,9.13 -7.6,16.73 -16.73,16.73l-132.27 -0c-9.13,0 -16.73,-7.6 -16.73,-16.72l0 -132.29c0,-9.11 7.6,-16.72 16.72,-16.72l132.28 0c9.13,0 16.72,7.61 16.72,16.72l0 132.29z"/>
   <path class="fil0" d="M372.52 751.13c0,9.13 -7.6,16.73 -16.72,16.73l-132.29 -0c-9.11,0 -16.72,-7.6 -16.72,-16.72l0 -132.29c0,-9.11 7.61,-16.72 16.72,-16.72l132.29 0c9.13,0 16.72,7.61 16.72,16.72l0 132.29z"/>
   <path class="fil1" d="M182.45 91.23c0,50.18 -41.06,91.24 -91.22,91.24 -50.18,0 -91.24,-41.06 -91.24,-91.23 0,-50.18 41.05,-91.24 91.24,-91.24 51.68,0 91.22,41.05 91.22,91.23z"/>
   <polygon class="fil2" points="685.66,367.79 685.66,203.68 720.5,203.68 720.5,367.79 "/>
   <path class="fil2" d="M908.24 367.79l-44.28 0 -71.53 -124.15 -1 0c1.42,21.95 2.15,37.58 2.15,46.92l0 77.23 -31.16 0 0 -164.1 43.98 0 71.37 122.92 0.8 0c-1.15,-21.33 -1.69,-36.43 -1.69,-45.24l0 -77.68 31.35 0 0 164.1zm138.45 -45.51c0,14.83 -5.38,26.47 -16.04,35.01 -10.67,8.54 -25.56,12.79 -44.59,12.79 -17.54,0 -33.07,-3.29 -46.54,-9.88l0 -32.33c11.09,4.94 20.49,8.43 28.16,10.46 7.68,2.03 14.7,3.03 21.07,3.03 7.68,0 13.54,-1.45 17.61,-4.37 4.11,-2.91 6.14,-7.28 6.14,-13.03 0,-3.22 -0.89,-6.09 -2.69,-8.58 -1.8,-2.53 -4.45,-4.94 -7.94,-7.24 -3.49,-2.34 -10.59,-6.06 -21.3,-11.11 -10.05,-4.75 -17.61,-9.27 -22.64,-13.6 -5.02,-4.33 -9.02,-9.39 -12.01,-15.17 -3.03,-5.75 -4.53,-12.49 -4.53,-20.19 0,-14.52 4.95,-25.94 14.81,-34.25 9.86,-8.31 23.49,-12.45 40.86,-12.45 8.56,0 16.69,1 24.48,3.03 7.75,2.03 15.85,4.86 24.33,8.54l-11.24 27.05c-8.79,-3.6 -16.04,-6.09 -21.75,-7.51 -5.76,-1.42 -11.4,-2.15 -16.93,-2.15 -6.6,0 -11.67,1.54 -15.19,4.6 -3.53,3.07 -5.29,7.09 -5.29,12.03 0,3.07 0.73,5.75 2.15,8.01 1.42,2.3 3.68,4.48 6.79,6.63 3.11,2.15 10.48,5.97 22.1,11.49 15.39,7.36 25.9,14.71 31.62,22.07 5.68,7.39 8.56,16.4 8.56,27.12z"/>
   <path class="fil2" d="M1140.85 367.79l-34.84 0 0 -135.14 -44.63 0 0 -28.96 124.1 0 0 28.96 -44.63 0 0 135.14zm69.95 0l0 -164.1 34.84 0 0 164.1 -34.84 0zm139.6 0l-34.84 0 0 -135.14 -44.63 0 0 -28.96 124.1 0 0 28.96 -44.63 0 0 135.14z"/>
   <path class="fil2" d="M1555.2 203.68l0 106.22c0,12.1 -2.72,22.75 -8.13,31.87 -5.45,9.16 -13.28,16.13 -23.56,20.99 -10.28,4.86 -22.41,7.31 -36.45,7.31 -21.11,0 -37.53,-5.4 -49.23,-16.24 -11.7,-10.8 -17.54,-25.59 -17.54,-44.4l0 -105.76 34.73 0 0 100.48c0,12.68 2.57,21.95 7.64,27.85 5.1,5.94 13.54,8.89 25.32,8.89 11.4,0 19.65,-2.99 24.79,-8.93 5.14,-5.94 7.71,-15.28 7.71,-28l0 -100.28 34.73 0z"/>
   <polygon class="fil2" points="1658.25,367.79 1623.41,367.79 1623.41,232.64 1578.79,232.64 1578.79,203.68 1702.88,203.68 1702.88,232.64 1658.25,232.64 "/>
   <path class="fil2" d="M1878.63 285.54c0,27.2 -6.71,48.07 -20.22,62.67 -13.51,14.59 -32.85,21.87 -58.02,21.87 -25.17,0 -44.51,-7.28 -58.02,-21.87 -13.5,-14.6 -20.22,-35.55 -20.22,-62.86 0,-27.31 6.76,-48.19 20.3,-62.59 13.51,-14.41 32.92,-21.61 58.17,-21.61 25.25,0 44.59,7.24 57.94,21.76 13.4,14.52 20.07,35.4 20.07,62.64zm-119.95 0c0,18.35 3.49,32.14 10.44,41.45 6.98,9.27 17.42,13.91 31.27,13.91 27.82,0 41.71,-18.47 41.71,-55.35 0,-36.97 -13.81,-55.43 -41.48,-55.43 -13.89,0 -24.32,4.67 -31.38,13.98 -7.03,9.31 -10.55,23.14 -10.55,41.45zm248.11 82.24l-34.3 0 0 -164.1 94.24 0 0 28.5 -59.94 0 0 42.29 55.79 0 0 28.5 -55.79 0 0 64.82z"/>
   <path class="fil2" d="M2193.97 367.79l-94.67 0 0 -164.1 94.67 0 0 28.5 -59.82 0 0 36.09 55.64 0 0 28.5 -55.64 0 0 42.29 59.82 0 0 28.73zm170.56 -83.62c0,27 -7.67,47.69 -23.06,62.06 -15.42,14.36 -37.64,21.57 -66.73,21.57l-46.51 0 0 -164.1 51.57 0c26.82,0 47.66,7.09 62.51,21.22 14.81,14.14 22.22,33.9 22.22,59.26zm-36.19 0.88c0,-35.24 -15.58,-52.86 -46.73,-52.86l-18.54 0 0 106.88 14.97 0c33.54,0 50.3,-18.01 50.3,-54.01zm164.96 82.74l-94.67 0 0 -164.1 94.67 0 0 28.5 -59.82 0 0 36.09 55.64 0 0 28.5 -55.64 0 0 42.29 59.82 0 0 28.73zm69.11 -91.25l11.25 0c11.01,0 19.15,-1.84 24.36,-5.51 5.26,-3.64 7.86,-9.43 7.86,-17.28 0,-7.78 -2.69,-13.33 -8.02,-16.63 -5.37,-3.3 -13.66,-4.94 -24.91,-4.94l-10.55 0 0 44.36zm0 28.27l0 62.98 -34.84 0 0 -164.1 47.89 0c22.33,0 38.83,4.06 49.54,12.18 10.74,8.12 16.08,20.46 16.08,36.97 0,9.65 -2.65,18.23 -7.98,25.78 -5.29,7.51 -12.82,13.41 -22.56,17.66 24.71,36.89 40.83,60.75 48.31,71.52l-38.68 0 -39.22 -62.98 -18.53 0z"/>
   <path class="fil2" d="M2782.16 367.79l-11.94 -39.07 -59.94 0 -11.89 39.07 -37.57 0 58.02 -164.8 42.59 0 58.25 164.8 -37.52 0zm-20.26 -68.26c-11.02,-35.4 -17.23,-55.43 -18.61,-60.07 -1.38,-4.64 -2.37,-8.31 -2.95,-10.99 -2.5,9.58 -9.6,33.25 -21.26,71.06l42.82 0z"/>
   <polygon class="fil2" points="2840.02,367.79 2840.02,203.68 2874.87,203.68 2874.87,339.06 2941.56,339.06 2941.56,367.79 "/>
   <path class="fil2" d="M786.84 571.16l-17.02 0 -70.12 -107.5 -0.71 0c0.92,12.62 1.4,24.16 1.4,34.69l0 72.81 -13.77 0 0 -128.11 16.84 0 69.96 107.08 0.69 0c-0.12,-1.58 -0.36,-6.64 -0.78,-15.22 -0.41,-8.55 -0.56,-14.65 -0.44,-18.36l0 -73.5 13.96 0 0 128.11zm116.07 -48.08c0,15.67 -3.96,27.9 -11.83,36.69 -7.91,8.79 -18.82,13.19 -32.74,13.19 -8.6,0 -16.24,-2.01 -22.92,-6.04 -6.65,-4.04 -11.8,-9.84 -15.42,-17.37 -3.66,-7.53 -5.45,-16.36 -5.45,-26.46 0,-15.67 3.92,-27.87 11.77,-36.6 7.82,-8.73 18.72,-13.1 32.62,-13.1 13.47,0 24.14,4.46 32.08,13.4 7.94,8.94 11.89,21.05 11.89,36.3zm-73.27 0c0,12.26 2.45,21.62 7.36,28.05 4.91,6.43 12.13,9.63 21.69,9.63 9.52,0 16.78,-3.2 21.72,-9.6 4.94,-6.4 7.4,-15.76 7.4,-28.08 0,-12.2 -2.46,-21.47 -7.4,-27.81 -4.94,-6.34 -12.25,-9.51 -21.89,-9.51 -9.56,0 -16.75,3.11 -21.6,9.36 -4.85,6.25 -7.27,15.58 -7.27,27.96zm142.66 -49.7c4.25,0 8.09,0.36 11.48,1.05l-2.01 13.54c-3.99,-0.86 -7.49,-1.31 -10.54,-1.31 -7.76,0 -14.41,3.14 -19.95,9.45 -5.51,6.31 -8.27,14.18 -8.27,23.57l0 51.49 -14.59 0 0 -95.99 12.04 0 1.65 17.73 0.72 0c3.57,-6.25 7.85,-11.06 12.88,-14.44 5.03,-3.38 10.55,-5.08 16.59,-5.08zm60.57 87.56c2.57,0 5.06,-0.18 7.46,-0.57 2.39,-0.39 4.28,-0.78 5.69,-1.2l0 11.15c-1.58,0.75 -3.89,1.38 -6.97,1.89 -3.06,0.51 -5.84,0.75 -8.3,0.75 -18.6,0 -27.89,-9.78 -27.89,-29.37l0 -57.11 -13.78 0 0 -7 13.78 -6.07 6.14 -20.48 8.42 0 0 22.25 27.92 0 0 11.3 -27.92 0 0 56.49c0,5.8 1.38,10.22 4.14,13.34 2.76,3.08 6.53,4.64 11.32,4.64zm72.99 12.02c-14.23,0 -25.43,-4.34 -33.63,-12.98 -8.24,-8.64 -12.34,-20.66 -12.34,-36.03 0,-15.49 3.8,-27.78 11.44,-36.9 7.64,-9.12 17.88,-13.67 30.76,-13.67 12.04,0 21.6,3.95 28.6,11.87 7.01,7.92 10.55,18.36 10.55,31.31l0 9.21 -66.26 0c0.3,11.27 3.14,19.83 8.54,25.69 5.42,5.83 13.03,8.76 22.88,8.76 10.34,0 20.58,-2.16 30.7,-6.49l0 12.98c-5.15,2.25 -10.04,3.83 -14.62,4.82 -4.58,0.96 -10.12,1.44 -16.63,1.44zm-3.96 -87.38c-7.73,0 -13.86,2.51 -18.45,7.53 -4.61,4.99 -7.31,11.93 -8.12,20.81l50.26 0c0,-9.15 -2.04,-16.18 -6.14,-21.05 -4.1,-4.88 -9.95,-7.3 -17.55,-7.3zm176.34 72.72l-0.78 0c-6.74,9.78 -16.81,14.65 -30.19,14.65 -12.58,0 -22.38,-4.31 -29.39,-12.89 -6.97,-8.58 -10.48,-20.81 -10.48,-36.63 0,-15.85 3.51,-28.14 10.54,-36.9 7.01,-8.76 16.81,-13.16 29.33,-13.16 13.03,0 23.03,4.73 30.01,14.2l1.14 0 -0.6 -6.94 -0.36 -6.73 0 -39.12 14.56 0 0 136.36 -11.83 0 -1.95 -12.86zm-29.14 2.45c9.95,0 17.17,-2.69 21.66,-8.1 4.46,-5.41 6.71,-14.12 6.71,-26.17l0 -3.05c0,-13.61 -2.28,-23.33 -6.8,-29.13 -4.55,-5.83 -11.8,-8.73 -21.75,-8.73 -8.54,0 -15.07,3.32 -19.62,9.96 -4.52,6.61 -6.8,15.97 -6.8,28.08 0,12.26 2.25,21.5 6.77,27.75 4.49,6.25 11.11,9.39 19.83,9.39zm114.42 12.2c-14.23,0 -25.43,-4.34 -33.63,-12.98 -8.24,-8.64 -12.34,-20.66 -12.34,-36.03 0,-15.49 3.8,-27.78 11.44,-36.9 7.64,-9.12 17.88,-13.67 30.76,-13.67 12.04,0 21.6,3.95 28.6,11.87 7.01,7.92 10.55,18.36 10.55,31.31l0 9.21 -66.26 0c0.3,11.27 3.14,19.83 8.54,25.69 5.42,5.83 13.03,8.76 22.88,8.76 10.34,0 20.58,-2.16 30.71,-6.49l0 12.98c-5.16,2.25 -10.04,3.83 -14.62,4.82 -4.58,0.96 -10.12,1.44 -16.63,1.44zm-3.95 -87.38c-7.73,0 -13.87,2.51 -18.45,7.53 -4.61,4.99 -7.31,11.93 -8.12,20.81l50.26 0c0,-9.15 -2.04,-16.18 -6.14,-21.05 -4.11,-4.88 -9.95,-7.3 -17.55,-7.3zm169.84 85.58l-43.55 -113.57 -0.69 0c0.81,9 1.23,19.71 1.23,32.09l0 81.49 -13.78 0 0 -128.11 22.46 0 40.65 105.68 0.69 0 41.01 -105.68 22.29 0 0 128.11 -14.92 0 0 -82.53c0,-9.48 0.42,-19.77 1.23,-30.86l-0.69 0 -43.91 113.39 -12.01 0zm117.84 0l-14.56 0 0 -95.99 14.56 0 0 95.99zm-15.79 -122.06c0,-3.32 0.81,-5.74 2.45,-7.3 1.65,-1.56 3.69,-2.33 6.14,-2.33 2.34,0 4.37,0.78 6.05,2.36 1.71,1.58 2.54,4.01 2.54,7.27 0,3.29 -0.83,5.74 -2.54,7.33 -1.68,1.62 -3.71,2.42 -6.05,2.42 -2.45,0 -4.49,-0.81 -6.14,-2.42 -1.65,-1.58 -2.45,-4.04 -2.45,-7.33zm112.54 122.06l0 -62.11c0,-7.83 -1.77,-13.66 -5.36,-17.52 -3.57,-3.86 -9.16,-5.77 -16.77,-5.77 -10.07,0 -17.43,2.72 -22.11,8.13 -4.7,5.44 -7.03,14.41 -7.03,26.91l0 50.36 -14.56 0 0 -95.99 11.83 0 2.36 13.09 0.72 0c2.99,-4.73 7.16,-8.4 12.55,-11 5.39,-2.6 11.38,-3.89 18,-3.89 11.59,0 20.31,2.78 26.15,8.37 5.87,5.56 8.78,14.5 8.78,26.76l0 62.65 -14.56 0zm103.61 0l-2.91 -13.67 -0.71 0c-4.79,6.01 -9.56,10.11 -14.32,12.26 -4.79,2.13 -10.72,3.2 -17.85,3.2 -9.56,0 -17.02,-2.45 -22.44,-7.36 -5.39,-4.93 -8.12,-11.9 -8.12,-20.99 0,-19.41 15.54,-29.58 46.58,-30.5l16.33 -0.54 0 -5.95c0,-7.51 -1.62,-13.07 -4.85,-16.66 -3.27,-3.59 -8.45,-5.38 -15.57,-5.38 -8.03,0 -17.08,2.45 -27.2,7.36l-4.46 -11.12c4.73,-2.57 9.92,-4.61 15.55,-6.07 5.66,-1.46 11.32,-2.18 16.98,-2.18 11.47,0 19.95,2.54 25.49,7.62 5.54,5.08 8.3,13.22 8.3,24.43l0 65.55 -10.78 0zm-32.92 -10.22c9.08,0 16.2,-2.48 21.36,-7.45 5.18,-4.96 7.79,-11.9 7.79,-20.84l0 -8.67 -14.59 0.62c-11.56,0.39 -19.92,2.19 -25.04,5.38 -5.12,3.17 -7.67,8.13 -7.67,14.83 0,5.26 1.59,9.27 4.79,12 3.17,2.75 7.64,4.13 13.36,4.13zm135.78 -15.94c0,8.94 -3.36,15.85 -10.01,20.69 -6.68,4.85 -16.03,7.27 -28.1,7.27 -12.73,0 -22.67,-2.01 -29.83,-6.04l0 -13.52c4.64,2.33 9.58,4.19 14.89,5.53 5.3,1.35 10.39,2.01 15.3,2.01 7.61,0 13.45,-1.23 17.55,-3.65 4.1,-2.42 6.14,-6.1 6.14,-11.06 0,-3.74 -1.61,-6.94 -4.88,-9.6 -3.24,-2.66 -9.56,-5.8 -18.99,-9.42 -8.95,-3.35 -15.3,-6.25 -19.08,-8.73 -3.77,-2.48 -6.59,-5.29 -8.42,-8.46 -1.86,-3.14 -2.75,-6.91 -2.75,-11.3 0,-7.83 3.17,-14 9.55,-18.54 6.38,-4.52 15.13,-6.79 26.24,-6.79 10.33,0 20.46,2.09 30.34,6.31l-5.18 11.85c-9.65,-3.98 -18.39,-5.95 -26.21,-5.95 -6.92,0 -12.13,1.08 -15.64,3.23 -3.5,2.19 -5.27,5.14 -5.27,8.94 0,2.57 0.66,4.76 1.98,6.58 1.32,1.8 3.44,3.53 6.38,5.17 2.91,1.62 8.54,4.01 16.83,7.09 11.41,4.16 19.11,8.34 23.13,12.53 4.02,4.22 6.02,9.51 6.02,15.88zm129.01 -40.94l43.61 0 0 62.32c-6.8,2.16 -13.68,3.8 -20.73,4.9 -7.01,1.11 -15.16,1.68 -24.38,1.68 -19.44,0 -34.56,-5.77 -45.38,-17.31 -10.81,-11.54 -16.23,-27.69 -16.23,-48.5 0,-13.31 2.7,-24.97 8.03,-34.99 5.36,-10.02 13.06,-17.67 23.13,-22.96 10.06,-5.29 21.86,-7.92 35.37,-7.92 13.69,0 26.45,2.51 38.25,7.5l-5.78 13.13c-11.59,-4.9 -22.73,-7.36 -33.43,-7.36 -15.63,0 -27.83,4.63 -36.61,13.93 -8.78,9.27 -13.15,22.16 -13.15,38.64 0,17.28 4.23,30.41 12.67,39.35 8.45,8.94 20.88,13.4 37.26,13.4 8.86,0 17.55,-1.02 26.06,-3.08l0 -39.44 -28.69 0 0 -13.28zm112.84 68.9c-14.23,0 -25.43,-4.34 -33.64,-12.98 -8.24,-8.64 -12.34,-20.66 -12.34,-36.03 0,-15.49 3.81,-27.78 11.44,-36.9 7.64,-9.12 17.88,-13.67 30.76,-13.67 12.04,0 21.6,3.95 28.6,11.87 7.01,7.92 10.55,18.36 10.55,31.31l0 9.21 -66.26 0c0.3,11.27 3.15,19.83 8.54,25.69 5.42,5.83 13.03,8.76 22.88,8.76 10.34,0 20.58,-2.16 30.7,-6.49l0 12.98c-5.15,2.25 -10.04,3.83 -14.62,4.82 -4.58,0.96 -10.12,1.44 -16.62,1.44zm-3.96 -87.38c-7.73,0 -13.86,2.51 -18.45,7.53 -4.61,4.99 -7.31,11.93 -8.12,20.81l50.26 0c0,-9.15 -2.03,-16.18 -6.14,-21.05 -4.11,-4.88 -9.95,-7.3 -17.55,-7.3zm108.01 -12.2c4.25,0 8.09,0.36 11.47,1.05l-2.01 13.54c-3.99,-0.86 -7.49,-1.31 -10.55,-1.31 -7.76,0 -14.41,3.14 -19.94,9.45 -5.52,6.31 -8.27,14.18 -8.27,23.57l0 51.49 -14.59 0 0 -95.99 12.04 0 1.65 17.73 0.72 0c3.57,-6.25 7.85,-11.06 12.88,-14.44 5.03,-3.38 10.54,-5.08 16.59,-5.08zm85.04 97.78l-2.91 -13.67 -0.71 0c-4.79,6.01 -9.56,10.11 -14.32,12.26 -4.79,2.13 -10.72,3.2 -17.85,3.2 -9.55,0 -17.01,-2.45 -22.44,-7.36 -5.39,-4.93 -8.12,-11.9 -8.12,-20.99 0,-19.41 15.54,-29.58 46.58,-30.5l16.32 -0.54 0 -5.95c0,-7.51 -1.62,-13.07 -4.85,-16.66 -3.26,-3.59 -8.45,-5.38 -15.57,-5.38 -8.03,0 -17.08,2.45 -27.2,7.36l-4.46 -11.12c4.73,-2.57 9.91,-4.61 15.55,-6.07 5.66,-1.46 11.32,-2.18 16.98,-2.18 11.48,0 19.95,2.54 25.5,7.62 5.54,5.08 8.3,13.22 8.3,24.43l0 65.55 -10.78 0zm-32.92 -10.22c9.07,0 16.2,-2.48 21.36,-7.45 5.18,-4.96 7.79,-11.9 7.79,-20.84l0 -8.67 -14.59 0.62c-11.56,0.39 -19.92,2.19 -25.04,5.38 -5.12,3.17 -7.67,8.13 -7.67,14.83 0,5.26 1.59,9.27 4.79,12 3.17,2.75 7.64,4.13 13.36,4.13zm88.31 10.22l-14.56 0 0 -95.99 14.56 0 0 95.99zm-15.79 -122.06c0,-3.32 0.81,-5.74 2.45,-7.3 1.65,-1.56 3.69,-2.33 6.14,-2.33 2.34,0 4.37,0.78 6.05,2.36 1.71,1.58 2.54,4.01 2.54,7.27 0,3.29 -0.83,5.74 -2.54,7.33 -1.68,1.62 -3.71,2.42 -6.05,2.42 -2.45,0 -4.49,-0.81 -6.14,-2.42 -1.65,-1.58 -2.45,-4.04 -2.45,-7.33zm108.73 95.9c0,8.94 -3.35,15.85 -10.01,20.69 -6.68,4.85 -16.02,7.27 -28.1,7.27 -12.73,0 -22.67,-2.01 -29.83,-6.04l0 -13.52c4.64,2.33 9.58,4.19 14.89,5.53 5.3,1.35 10.39,2.01 15.3,2.01 7.61,0 13.45,-1.23 17.55,-3.65 4.11,-2.42 6.14,-6.1 6.14,-11.06 0,-3.74 -1.62,-6.94 -4.88,-9.6 -3.24,-2.66 -9.56,-5.8 -19,-9.42 -8.95,-3.35 -15.3,-6.25 -19.08,-8.73 -3.78,-2.48 -6.59,-5.29 -8.42,-8.46 -1.86,-3.14 -2.75,-6.91 -2.75,-11.3 0,-7.83 3.18,-14 9.55,-18.54 6.38,-4.52 15.13,-6.79 26.24,-6.79 10.33,0 20.46,2.09 30.34,6.31l-5.19 11.85c-9.64,-3.98 -18.39,-5.95 -26.21,-5.95 -6.92,0 -12.13,1.08 -15.63,3.23 -3.5,2.19 -5.27,5.14 -5.27,8.94 0,2.57 0.66,4.76 1.98,6.58 1.32,1.8 3.44,3.53 6.38,5.17 2.91,1.62 8.54,4.01 16.84,7.09 11.41,4.16 19.11,8.34 23.13,12.53 4.02,4.22 6.02,9.51 6.02,15.88z"/>
   <path class="fil2" d="M739.22 655.67c-13.63,0 -24.41,4.55 -32.33,13.6 -7.89,9.09 -11.83,21.51 -11.83,37.28 0,16.24 3.8,28.77 11.42,37.6 7.6,8.86 18.47,13.29 32.59,13.29 8.64,0 18.53,-1.57 29.63,-4.66l0 12.65c-8.61,3.24 -19.22,4.86 -31.86,4.86 -18.29,0 -32.41,-5.53 -42.33,-16.61 -9.95,-11.08 -14.93,-26.83 -14.93,-47.24 0,-12.79 2.41,-23.99 7.19,-33.6 4.79,-9.61 11.69,-17.02 20.73,-22.2 9.02,-5.21 19.66,-7.81 31.9,-7.81 13.05,0 24.41,2.37 34.15,7.09l-6.12 12.39c-9.4,-4.43 -18.79,-6.63 -28.21,-6.63zm111.68 112.88l-2.81 -13.23 -0.69 0c-4.64,5.82 -9.25,9.78 -13.86,11.87 -4.64,2.05 -10.38,3.1 -17.28,3.1 -9.25,0 -16.46,-2.37 -21.71,-7.12 -5.22,-4.78 -7.86,-11.52 -7.86,-20.32 0,-18.79 15.04,-28.63 45.08,-29.52l15.81 -0.52 0 -5.76c0,-7.27 -1.57,-12.65 -4.7,-16.12 -3.16,-3.47 -8.18,-5.21 -15.08,-5.21 -7.77,0 -16.53,2.37 -26.33,7.12l-4.31 -10.77c4.58,-2.49 9.59,-4.46 15.05,-5.88 5.48,-1.42 10.96,-2.11 16.43,-2.11 11.11,0 19.31,2.46 24.67,7.38 5.37,4.92 8.03,12.79 8.03,23.64l0 63.45 -10.43 0zm-31.87 -9.9c8.79,0 15.69,-2.4 20.68,-7.21 5.02,-4.81 7.54,-11.52 7.54,-20.18l0 -8.39 -14.12 0.61c-11.19,0.38 -19.28,2.12 -24.24,5.21 -4.96,3.07 -7.42,7.87 -7.42,14.36 0,5.09 1.54,8.97 4.64,11.61 3.07,2.66 7.39,3.99 12.93,3.99zm189.99 9.9l0 -60.46c0,-7.38 -1.57,-12.94 -4.76,-16.64 -3.16,-3.71 -8.09,-5.56 -14.76,-5.56 -8.79,0 -15.25,2.52 -19.45,7.56 -4.17,5.03 -6.29,12.76 -6.29,23.21l0 51.9 -14.09 0 0 -60.46c0,-7.38 -1.59,-12.94 -4.76,-16.64 -3.16,-3.71 -8.12,-5.56 -14.87,-5.56 -8.81,0 -15.28,2.63 -19.39,7.93 -4.09,5.27 -6.15,13.95 -6.15,25.99l0 48.74 -14.09 0 0 -92.91 11.45 0 2.29 12.68 0.69 0c2.64,-4.52 6.41,-8.05 11.25,-10.6 4.85,-2.54 10.26,-3.82 16.27,-3.82 14.53,0 24.06,5.27 28.53,15.78l0.66 0c2.78,-4.86 6.82,-8.71 12.06,-11.55 5.28,-2.81 11.28,-4.23 18,-4.23 10.52,0 18.41,2.69 23.66,8.1 5.22,5.38 7.86,14.04 7.86,25.91l0 60.64 -14.12 0zm86.52 1.74c-6.06,0 -11.6,-1.13 -16.62,-3.36 -4.99,-2.23 -9.22,-5.67 -12.61,-10.31l-1.01 0c0.67,5.41 1.01,10.57 1.01,15.43l0 38.18 -14.09 0 0 -134.59 11.45 0 1.97 12.68 0.67 0c3.63,-5.1 7.86,-8.77 12.67,-11.03 4.81,-2.26 10.32,-3.39 16.56,-3.39 12.35,0 21.89,4.23 28.61,12.65 6.7,8.42 10.06,20.23 10.06,35.46 0,15.28 -3.42,27.15 -10.23,35.6 -6.84,8.45 -16.29,12.68 -28.44,12.68zm-2.03 -84.4c-9.51,0 -16.41,2.63 -20.64,7.87 -4.26,5.27 -6.44,13.63 -6.56,25.12l0 3.13c0,13.06 2.18,22.4 6.56,28.02 4.35,5.64 11.36,8.45 20.99,8.45 8.03,0 14.36,-3.25 18.91,-9.75 4.55,-6.51 6.85,-15.46 6.85,-26.89 0,-11.58 -2.29,-20.47 -6.85,-26.66 -4.55,-6.2 -10.99,-9.29 -19.25,-9.29zm78.57 -10.25l0 60.29c0,7.55 1.71,13.23 5.19,16.96 3.46,3.73 8.87,5.59 16.24,5.59 9.74,0 16.84,-2.66 21.36,-7.96 4.49,-5.32 6.76,-14.01 6.76,-26.05l0 -48.83 14.09 0 0 92.91 -11.63 0 -2.03 -12.42 -0.78 0c-2.87,4.58 -6.9,8.08 -12.03,10.51 -5.1,2.43 -10.96,3.65 -17.54,3.65 -11.33,0 -19.8,-2.69 -25.46,-8.05 -5.62,-5.38 -8.43,-13.98 -8.43,-25.79l0 -60.81 14.26 0zm153.58 67.59c0,8.65 -3.25,15.34 -9.69,20.03 -6.46,4.69 -15.51,7.03 -27.19,7.03 -12.32,0 -21.95,-1.94 -28.88,-5.85l0 -13.08c4.49,2.25 9.28,4.05 14.41,5.35 5.13,1.3 10.06,1.94 14.82,1.94 7.36,0 13.02,-1.18 16.99,-3.53 3.97,-2.34 5.95,-5.9 5.95,-10.71 0,-3.62 -1.57,-6.71 -4.73,-9.29 -3.13,-2.57 -9.25,-5.61 -18.38,-9.12 -8.67,-3.24 -14.82,-6.05 -18.47,-8.45 -3.65,-2.4 -6.38,-5.12 -8.15,-8.19 -1.8,-3.04 -2.67,-6.68 -2.67,-10.94 0,-7.58 3.07,-13.55 9.25,-17.95 6.18,-4.37 14.64,-6.57 25.4,-6.57 10,0 19.8,2.03 29.37,6.11l-5.02 11.46c-9.34,-3.85 -17.8,-5.76 -25.37,-5.76 -6.69,0 -11.74,1.04 -15.13,3.13 -3.39,2.11 -5.1,4.98 -5.1,8.65 0,2.49 0.64,4.61 1.92,6.37 1.28,1.74 3.33,3.42 6.18,5.01 2.81,1.57 8.26,3.88 16.29,6.86 11.05,4.02 18.5,8.08 22.39,12.13 3.88,4.08 5.82,9.21 5.82,15.37zm125.22 25.32l-42.16 -109.93 -0.66 0c0.78,8.72 1.18,19.08 1.18,31.06l0 78.87 -13.33 0 0 -124 21.75 0 39.34 102.29 0.67 0 39.69 -102.29 21.57 0 0 124 -14.44 0 0 -79.89c0,-9.18 0.4,-19.13 1.19,-29.87l-0.67 0 -42.51 109.76 -11.62 0zm180.31 -46.54c0,15.17 -3.82,27 -11.45,35.51 -7.65,8.51 -18.21,12.76 -31.69,12.76 -8.32,0 -15.72,-1.94 -22.18,-5.85 -6.44,-3.91 -11.42,-9.52 -14.93,-16.82 -3.54,-7.29 -5.28,-15.83 -5.28,-25.62 0,-15.16 3.8,-26.98 11.4,-35.43 7.57,-8.45 18.12,-12.68 31.57,-12.68 13.05,0 23.37,4.31 31.05,12.97 7.68,8.66 11.51,20.38 11.51,35.14zm-70.92 0c0,11.87 2.38,20.93 7.13,27.15 4.76,6.22 11.75,9.32 20.99,9.32 9.22,0 16.24,-3.1 21.02,-9.29 4.79,-6.2 7.16,-15.25 7.16,-27.18 0,-11.81 -2.38,-20.78 -7.16,-26.92 -4.79,-6.14 -11.86,-9.21 -21.2,-9.21 -9.25,0 -16.2,3.01 -20.9,9.06 -4.7,6.05 -7.05,15.08 -7.05,27.06zm159.38 46.54l0 -60.12c0,-7.59 -1.71,-13.23 -5.19,-16.96 -3.45,-3.73 -8.87,-5.58 -16.23,-5.58 -9.74,0 -16.87,2.63 -21.4,7.87 -4.55,5.27 -6.81,13.95 -6.81,26.05l0 48.74 -14.09 0 0 -92.91 11.45 0 2.29 12.68 0.69 0c2.9,-4.58 6.93,-8.13 12.15,-10.65 5.22,-2.52 11.02,-3.76 17.43,-3.76 11.22,0 19.65,2.69 25.31,8.1 5.68,5.38 8.49,14.04 8.49,25.91l0 60.64 -14.09 0zm73.12 -9.9c2.5,0 4.9,-0.17 7.22,-0.55 2.32,-0.38 4.15,-0.75 5.51,-1.16l0 10.79c-1.54,0.73 -3.77,1.33 -6.75,1.83 -2.96,0.49 -5.65,0.72 -8.03,0.72 -18.01,0 -27,-9.46 -27,-28.42l0 -55.28 -13.33 0 0 -6.77 13.33 -5.88 5.94 -19.83 8.15 0 0 21.54 27.02 0 0 10.94 -27.02 0 0 54.67c0,5.61 1.33,9.9 4,12.91 2.67,2.98 6.32,4.49 10.96,4.49zm70.66 11.64c-13.77,0 -24.61,-4.2 -32.56,-12.56 -7.98,-8.37 -11.94,-20 -11.94,-34.88 0,-15 3.68,-26.89 11.08,-35.72 7.39,-8.83 17.31,-13.23 29.78,-13.23 11.66,0 20.9,3.82 27.69,11.49 6.79,7.67 10.2,17.77 10.2,30.31l0 8.91 -64.13 0c0.29,10.91 3.04,19.19 8.26,24.87 5.25,5.64 12.62,8.48 22.15,8.48 10.01,0 19.91,-2.09 29.72,-6.28l0 12.56c-4.99,2.17 -9.71,3.71 -14.15,4.66 -4.43,0.93 -9.8,1.39 -16.09,1.39zm-3.83 -84.57c-7.48,0 -13.42,2.43 -17.86,7.29 -4.47,4.84 -7.08,11.55 -7.86,20.15l48.65 0c0,-8.86 -1.97,-15.66 -5.94,-20.38 -3.98,-4.72 -9.63,-7.06 -16.99,-7.06zm122.15 57.51c0,8.65 -3.25,15.34 -9.69,20.03 -6.46,4.69 -15.51,7.03 -27.19,7.03 -12.32,0 -21.95,-1.94 -28.88,-5.85l0 -13.08c4.49,2.25 9.28,4.05 14.41,5.35 5.13,1.3 10.06,1.94 14.82,1.94 7.36,0 13.02,-1.18 16.99,-3.53 3.97,-2.34 5.94,-5.9 5.94,-10.71 0,-3.62 -1.57,-6.71 -4.73,-9.29 -3.13,-2.57 -9.25,-5.61 -18.38,-9.12 -8.67,-3.24 -14.82,-6.05 -18.47,-8.45 -3.65,-2.4 -6.38,-5.12 -8.15,-8.19 -1.8,-3.04 -2.67,-6.68 -2.67,-10.94 0,-7.58 3.07,-13.55 9.25,-17.95 6.18,-4.37 14.64,-6.57 25.4,-6.57 10,0 19.8,2.03 29.37,6.11l-5.02 11.46c-9.34,-3.85 -17.81,-5.76 -25.38,-5.76 -6.69,0 -11.74,1.04 -15.13,3.13 -3.39,2.11 -5.1,4.98 -5.1,8.65 0,2.49 0.64,4.61 1.92,6.37 1.28,1.74 3.34,3.42 6.18,5.01 2.81,1.57 8.26,3.88 16.29,6.86 11.05,4.02 18.5,8.08 22.39,12.13 3.89,4.08 5.82,9.21 5.82,15.37zm123.42 -87.56c-13.62,0 -24.41,4.55 -32.33,13.6 -7.89,9.09 -11.82,21.51 -11.82,37.28 0,16.24 3.79,28.77 11.42,37.6 7.6,8.86 18.47,13.29 32.59,13.29 8.64,0 18.53,-1.57 29.63,-4.66l0 12.65c-8.62,3.24 -19.23,4.86 -31.87,4.86 -18.29,0 -32.41,-5.53 -42.33,-16.61 -9.95,-11.08 -14.93,-26.83 -14.93,-47.24 0,-12.79 2.41,-23.99 7.19,-33.6 4.79,-9.61 11.69,-17.02 20.73,-22.2 9.01,-5.21 19.65,-7.81 31.89,-7.81 13.05,0 24.41,2.37 34.16,7.09l-6.12 12.39c-9.39,-4.43 -18.79,-6.63 -28.21,-6.63zm68.54 112.88l-14.09 0 0 -131.98 14.09 0 0 131.98zm87.16 0l-2.81 -13.23 -0.69 0c-4.64,5.82 -9.25,9.78 -13.86,11.87 -4.64,2.05 -10.38,3.1 -17.28,3.1 -9.25,0 -16.46,-2.37 -21.71,-7.12 -5.22,-4.78 -7.86,-11.52 -7.86,-20.32 0,-18.79 15.05,-28.63 45.09,-29.52l15.81 -0.52 0 -5.76c0,-7.27 -1.57,-12.65 -4.7,-16.12 -3.16,-3.47 -8.18,-5.21 -15.08,-5.21 -7.77,0 -16.53,2.37 -26.33,7.12l-4.31 -10.77c4.58,-2.49 9.59,-4.46 15.05,-5.88 5.48,-1.42 10.96,-2.11 16.43,-2.11 11.11,0 19.31,2.46 24.67,7.38 5.37,4.92 8.03,12.79 8.03,23.64l0 63.45 -10.43 0zm-31.87 -9.9c8.79,0 15.69,-2.4 20.68,-7.21 5.02,-4.81 7.54,-11.52 7.54,-20.18l0 -8.39 -14.12 0.61c-11.19,0.38 -19.28,2.12 -24.24,5.21 -4.96,3.07 -7.42,7.87 -7.42,14.36 0,5.09 1.54,8.97 4.64,11.61 3.07,2.66 7.39,3.99 12.93,3.99zm113.83 -84.75c4.12,0 7.83,0.35 11.11,1.01l-1.95 13.11c-3.85,-0.84 -7.25,-1.27 -10.2,-1.27 -7.51,0 -13.95,3.04 -19.31,9.15 -5.33,6.11 -8,13.72 -8,22.81l0 49.84 -14.12 0 0 -92.91 11.65 0 1.6 17.17 0.69 0c3.46,-6.05 7.6,-10.71 12.47,-13.98 4.87,-3.27 10.2,-4.92 16.06,-4.92zm105.42 48.1c0,15.17 -3.82,27 -11.45,35.51 -7.65,8.51 -18.21,12.76 -31.69,12.76 -8.32,0 -15.72,-1.94 -22.18,-5.85 -6.44,-3.91 -11.42,-9.52 -14.93,-16.82 -3.54,-7.29 -5.28,-15.83 -5.28,-25.62 0,-15.16 3.8,-26.98 11.4,-35.43 7.57,-8.45 18.12,-12.68 31.57,-12.68 13.05,0 23.37,4.31 31.05,12.97 7.68,8.66 11.51,20.38 11.51,35.14zm-70.92 0c0,11.87 2.38,20.93 7.13,27.15 4.76,6.22 11.75,9.32 20.99,9.32 9.22,0 16.24,-3.1 21.02,-9.29 4.79,-6.2 7.16,-15.25 7.16,-27.18 0,-11.81 -2.37,-20.78 -7.16,-26.92 -4.79,-6.14 -11.86,-9.21 -21.2,-9.21 -9.25,0 -16.2,3.01 -20.9,9.06 -4.7,6.05 -7.05,15.08 -7.05,27.06zm155.7 21.22c0,8.65 -3.25,15.34 -9.69,20.03 -6.47,4.69 -15.51,7.03 -27.19,7.03 -12.32,0 -21.95,-1.94 -28.88,-5.85l0 -13.08c4.49,2.25 9.28,4.05 14.41,5.35 5.14,1.3 10.06,1.94 14.82,1.94 7.36,0 13.02,-1.18 16.99,-3.53 3.97,-2.34 5.94,-5.9 5.94,-10.71 0,-3.62 -1.57,-6.71 -4.73,-9.29 -3.13,-2.57 -9.25,-5.61 -18.38,-9.12 -8.67,-3.24 -14.82,-6.05 -18.47,-8.45 -3.65,-2.4 -6.38,-5.12 -8.15,-8.19 -1.8,-3.04 -2.67,-6.68 -2.67,-10.94 0,-7.58 3.07,-13.55 9.25,-17.95 6.18,-4.37 14.64,-6.57 25.4,-6.57 10,0 19.8,2.03 29.37,6.11l-5.02 11.46c-9.34,-3.85 -17.8,-5.76 -25.37,-5.76 -6.7,0 -11.74,1.04 -15.13,3.13 -3.39,2.11 -5.1,4.98 -5.1,8.65 0,2.49 0.64,4.61 1.92,6.37 1.27,1.74 3.33,3.42 6.17,5.01 2.81,1.57 8.26,3.88 16.3,6.86 11.05,4.02 18.5,8.08 22.39,12.13 3.88,4.08 5.82,9.21 5.82,15.37z"/>
  </g>
 </g>
</svg>
